<?xml version="1.0" encoding="UTF-8" standalone="no"?>
<svg
   xmlns:dc="http://purl.org/dc/elements/1.1/"
   xmlns:cc="http://creativecommons.org/ns#"
   xmlns:rdf="http://www.w3.org/1999/02/22-rdf-syntax-ns#"
   xmlns:svg="http://www.w3.org/2000/svg"
   xmlns="http://www.w3.org/2000/svg"
   width="1024"
   height="258.00317"
   viewBox="0 0 1024 258.00317"
   id="svg2"
   version="1.1">
  <defs
     id="defs4">
    <clipPath
       id="clipPath3371"
       clipPathUnits="userSpaceOnUse">
      <path
         id="path3373"
         d="m 0,566.929 566.929,0 L 566.929,0 0,0 0,566.929 Z" />
    </clipPath>
    <clipPath
       id="clipPath3397"
       clipPathUnits="userSpaceOnUse">
      <path
         id="path3399"
         d="m 0,566.929 566.929,0 L 566.929,0 0,0 0,566.929 Z" />
    </clipPath>
    <clipPath
       id="clipPath3413"
       clipPathUnits="userSpaceOnUse">
      <path
         id="path3415"
         d="m 0,0 566.929,0 0,566.929 L 0,566.929 0,0 Z" />
    </clipPath>
    <clipPath
       id="clipPath3451"
       clipPathUnits="userSpaceOnUse">
      <path
         id="path3453"
         d="m 0,0 566.929,0 0,566.929 L 0,566.929 0,0 Z" />
    </clipPath>
    <clipPath
       id="clipPath3465"
       clipPathUnits="userSpaceOnUse">
      <path
         id="path3467"
         d="m 0,0 566.929,0 0,566.929 L 0,566.929 0,0 Z" />
    </clipPath>
    <clipPath
       id="clipPath3465-0"
       clipPathUnits="userSpaceOnUse">
      <path
         id="path3467-4"
         d="m 0,0 566.929,0 0,566.929 L 0,566.929 0,0 Z" />
    </clipPath>
    <clipPath
       id="clipPath3451-0"
       clipPathUnits="userSpaceOnUse">
      <path
         id="path3453-7"
         d="m 0,0 566.929,0 0,566.929 L 0,566.929 0,0 Z" />
    </clipPath>
  </defs>
  <metadata
     id="metadata7">
    <rdf:RDF>
      <cc:Work
         rdf:about="">
        <dc:format>image/svg+xml</dc:format>
        <dc:type
           rdf:resource="http://purl.org/dc/dcmitype/StillImage" />
        <dc:title></dc:title>
      </cc:Work>
    </rdf:RDF>
  </metadata>
  <g
     id="layer1"
     transform="matrix(2.048,0,0,2.048,-827.75976,38.665862)">
    <g
       id="g4537"
       transform="matrix(1.8213319,0,0,1.8213319,-331.96559,-87.963253)">
      <g
         id="g4518">
        <g
           transform="matrix(1.25,0,0,-1.25,333.31345,693.0843)"
           id="g3447"
           style="fill:#f79a5a;fill-opacity:1">
          <g
             clip-path="url(#clipPath3451-0)"
             id="g3449"
             style="fill:#f79a5a;fill-opacity:1">
            <g
               transform="translate(203.5932,482.064)"
               id="g3455"
               style="fill:#f79a5a;fill-opacity:1">
              <path
                 id="path3457"
                 style="fill:#f79a5a;fill-opacity:1;fill-rule:nonzero;stroke:none"
                 d="m 0,0 c -1.266,-0.545 -3.439,-0.967 -5.551,-0.967 -4.948,0 -6.758,2.777 -6.758,6.821 l 0,17.017 -3.259,0 0,5.973 3.259,0 0,7.664 6.758,0.784 0,-8.448 5.854,0 L 0,22.871 l -5.551,0 0,-15.993 c 0,-1.325 0.542,-1.991 2.172,-1.991 1.086,0 2.052,0.182 2.777,0.424 L 0,0 Z" />
            </g>
          </g>
        </g>
        <path
           id="path3459"
           style="fill:#f79a5a;fill-opacity:1;fill-rule:nonzero;stroke:none"
           d="m 593.08845,39.514293 8.44751,0 0,10.26 -8.44751,0 0,-10.26 z m 0,14.935 8.44751,0 0,36.51 -8.44751,0 0,-36.51 z" />
        <g
           transform="matrix(1.25,0,0,-1.25,640.46058,90.958925)"
           id="g3469"
           style="fill:#f79a5a;fill-opacity:1">
          <path
             id="path3471"
             style="fill:#f79a5a;fill-opacity:1;fill-rule:nonzero;stroke:none"
             d="m 0,0 0,21.183 c 0,1.509 -0.785,2.291 -2.414,2.291 -1.327,0 -2.656,-0.422 -3.741,-0.964 l 0,-22.51 -6.759,0 0,21.183 c 0,1.509 -0.783,2.291 -2.353,2.291 -1.387,0 -2.776,-0.422 -3.801,-0.964 l 0,-22.51 -6.758,0 0,29.208 5.611,0 0.664,-2.112 c 1.689,1.568 4.406,2.715 7.241,2.715 2.595,0 4.465,-0.844 5.431,-2.715 1.809,1.508 4.585,2.715 7.483,2.715 3.922,0 6.155,-1.872 6.155,-6.216 L 6.759,0 0,0 Z" />
        </g>
        <g
           transform="matrix(1.25,0,0,-1.25,662.63895,75.8703)"
           id="g3473"
           style="fill:#f79a5a;fill-opacity:1">
          <path
             id="path3475"
             style="fill:#f79a5a;fill-opacity:1;fill-rule:nonzero;stroke:none"
             d="m 0,0 0,-2.294 c 0,-3.378 1.449,-4.888 5.068,-4.888 2.354,0 4.889,0.423 6.819,1.208 l 0.965,-5.19 c -2.534,-0.965 -5.852,-1.51 -8.87,-1.51 -7.121,0 -10.741,3.561 -10.741,10.321 l 0,9.773 c 0,6.64 3.742,10.32 10.078,10.32 6.999,0 9.473,-3.801 9.473,-10.198 L 12.792,0 0,0 Z m 6.577,8.568 c 0,2.474 -0.725,3.801 -3.198,3.801 C 0.965,12.369 0,11.164 0,8.568 l 0,-3.319 6.577,0 0,3.319 z" />
        </g>
        <g
           transform="matrix(1.25,0,0,-1.25,460.13295,91.71255)"
           id="g3477"
           style="fill:#f79a5a;fill-opacity:1">
          <path
             id="path3479"
             style="fill:#f79a5a;fill-opacity:1;fill-rule:nonzero;stroke:none"
             d="m 0,0 c -2.173,0 -5.612,0.422 -8.025,1.328 l 0.965,5.431 c 2.052,-0.723 4.104,-1.147 6.516,-1.147 2.716,0 3.621,0.846 3.621,2.958 0,2.293 -0.603,2.532 -3.801,3.559 -6.276,1.992 -7.543,3.864 -7.543,9.596 0,6.335 3.44,8.689 9.715,8.689 2.715,0 5.37,-0.484 7.483,-1.327 L 8.086,23.595 c -1.75,0.663 -3.983,1.207 -6.276,1.207 -2.475,0 -3.5,-0.663 -3.5,-2.836 0,-1.992 0.665,-2.353 3.621,-3.319 C 7.783,16.715 9.655,15.569 9.655,9.294 9.655,3.441 6.577,0 0,0" />
        </g>
        <g
           transform="matrix(1.25,0,0,-1.25,493.39882,90.958925)"
           id="g3481"
           style="fill:#f79a5a;fill-opacity:1">
          <path
             id="path3483"
             style="fill:#f79a5a;fill-opacity:1;fill-rule:nonzero;stroke:none"
             d="m 0,0 0,21.183 c 0,1.509 -0.784,2.291 -2.413,2.291 -1.569,0 -2.957,-0.422 -4.103,-1.025 l 0,-22.449 -6.758,0 0,41.396 6.758,1.027 0,-15.026 c 1.749,1.389 4.646,2.414 7.059,2.414 3.984,0 6.216,-1.872 6.216,-6.216 L 6.759,0 0,0 Z" />
        </g>
        <g
           transform="matrix(1.25,0,0,-1.25,534.21258,79.415675)"
           id="g3485"
           style="fill:#f79a5a;fill-opacity:1">
          <path
             id="path3487"
             style="fill:#f79a5a;fill-opacity:1;fill-rule:nonzero;stroke:none"
             d="m 0,0 c 0,-6.095 -3.682,-9.838 -10.621,-9.838 -6.938,0 -10.559,3.743 -10.559,9.838 l 0,10.743 c 0,6.093 3.621,9.834 10.559,9.834 C -3.682,20.577 0,16.836 0,10.743 L 0,0 Z m -6.758,11.465 c 0,2.535 -1.51,3.5 -3.863,3.5 -2.352,0 -3.8,-0.965 -3.8,-3.5 l 0,-12.19 c 0,-2.534 1.448,-3.5 3.8,-3.5 2.353,0 3.863,0.966 3.863,3.5 l 0,12.19 z" />
        </g>
        <g
           transform="matrix(1.25,0,0,-1.25,565.06395,80.39705)"
           id="g3489"
           style="fill:#f79a5a;fill-opacity:1">
          <path
             id="path3491"
             style="fill:#f79a5a;fill-opacity:1;fill-rule:nonzero;stroke:none"
             d="m 0,0 c 0,-6.397 -3.5,-9.052 -8.749,-9.052 -1.752,0 -3.862,0.364 -5.069,0.846 l 0,-12.129 -6.758,-1.026 0,42.119 5.31,0 0.663,-2.112 c 1.57,1.388 4.043,2.715 7.242,2.715 C -2.234,21.361 0,18.709 0,13.095 L 0,0 Z m -6.758,12.552 c 0,1.871 -0.724,2.955 -2.715,2.955 -1.75,0 -3.259,-0.483 -4.345,-1.205 l 0,-17.077 c 1.026,-0.362 2.172,-0.483 3.317,-0.483 2.536,0 3.743,0.965 3.743,3.56 l 0,12.25 z" />
        </g>
      </g>
      <g
         id="g3493"
         transform="matrix(1.25,0,0,-1.25,440.66758,90.958543)">
        <path
           d="M 0,0 -14.578,0 0,14.578 0,0 Z"
           style="fill:#7794cb;fill-opacity:1;fill-rule:nonzero;stroke:none"
           id="path3495" />
      </g>
      <g
         id="g3497"
         transform="matrix(1.25,0,0,-1.25,440.66758,54.471293)">
        <path
           d="m 0,0 -29.19,-29.19 0,14.613 L -14.613,0 0,0 Z"
           style="fill:#7794cb;fill-opacity:1;fill-rule:nonzero;stroke:none"
           id="path3499" />
      </g>
      <g
         id="g3501"
         transform="matrix(1.25,0,0,-1.25,440.66758,54.471293)">
        <path
           d="m 0,0 0,-14.612 -14.578,-14.578 -14.612,0 L 0,0 Z"
           style="fill:#f79a5a;fill-opacity:1;fill-rule:nonzero;stroke:none"
           id="path3503" />
      </g>
      <g
         id="g3505"
         transform="matrix(1.25,0,0,-1.25,404.17958,54.471293)">
        <path
           d="M 0,0 14.577,0 0,-14.576 0,0 Z"
           style="fill:#f79a5a;fill-opacity:1;fill-rule:nonzero;stroke:none"
           id="path3507" />
      </g>
    </g>
  </g>
</svg>
