<?xml version="1.0" encoding="utf-8"?>
<!-- Generator: Adobe Illustrator 19.0.0, SVG Export Plug-In . SVG Version: 6.00 Build 0)  -->
<svg version="1.1" id="Layer_1" xmlns="http://www.w3.org/2000/svg" xmlns:xlink="http://www.w3.org/1999/xlink" x="0px" y="0px"
	 viewBox="-70 0 224.6 180" style="enable-background:new -70 0 224.6 180;" xml:space="preserve">
<style type="text/css">
	.st0{fill:#8DC63F;}
	.st1{fill:#5E6672;}
	.st2{fill:#C5C6CB;}
	.st3{fill:#DEBE3C;}
	.st4{fill:#AC302C;}
	.st5{fill:#8690A1;}
	.st6{fill:#DF413D;}
	.st7{fill:#313439;}
	.st8{fill:#2BAAB1;}
	.st9{fill:#FFFFFF;}
</style>
<polygon id="XMLID_253_" class="st0" points="136.6,118.9 94.6,118.9 94.6,64.7 76.7,64.7 76.7,58.8 82.5,58.8 82.5,52.7 88.6,52.7 
	88.6,46.7 94.6,46.7 94.6,40.9 100.6,40.9 100.6,34.8 106.6,34.8 106.6,28.8 112.7,28.8 112.7,22.7 118.7,22.7 118.7,28.8 
	124.6,28.8 124.6,34.7 130.6,34.7 130.6,40.8 136.6,40.8 136.6,46.4 142.5,46.4 142.5,51.9 148.6,51.9 148.6,58.8 154.6,58.8 
	154.6,64.7 136.6,64.7 "/>
<g id="XMLID_3293_">
	<rect id="XMLID_806_" x="118.7" y="141.2" class="st1" width="13.1" height="13.1"/>
	<rect id="XMLID_4574_" x="118.7" y="141.4" class="st1" width="12.9" height="12.9"/>
	<rect id="XMLID_805_" x="118.7" y="128.3" class="st2" width="13.1" height="13.1"/>
	<rect id="XMLID_4573_" x="118.7" y="128.5" class="st2" width="12.9" height="12.9"/>
	<rect id="XMLID_787_" x="105.8" y="154.1" class="st1" width="13.1" height="13.1"/>
	<rect id="XMLID_4555_" x="106" y="154.3" class="st1" width="12.9" height="12.9"/>
	<rect id="XMLID_786_" x="105.8" y="141.2" class="st2" width="13.1" height="13.1"/>
	<rect id="XMLID_4554_" x="106" y="141.4" class="st2" width="12.9" height="12.9"/>
	<rect id="XMLID_785_" x="105.8" y="128.3" class="st2" width="13.1" height="13.1"/>
	<rect id="XMLID_4553_" x="106" y="128.5" class="st2" width="12.9" height="12.9"/>
	<rect id="XMLID_784_" x="105.8" y="115.5" class="st2" width="13.1" height="13.1"/>
	<rect id="XMLID_4552_" x="106" y="115.6" class="st2" width="12.9" height="12.9"/>
	<rect id="XMLID_766_" x="92.8" y="166.9" class="st1" width="13.1" height="13.1"/>
	<rect id="XMLID_4534_" x="93.2" y="166.9" class="st1" width="12.9" height="12.9"/>
	<rect id="XMLID_765_" x="92.8" y="154.1" class="st1" width="13.1" height="13.1"/>
	<rect id="XMLID_4533_" x="93.2" y="154.3" class="st1" width="12.9" height="12.9"/>
	<rect id="XMLID_764_" x="92.8" y="141.2" class="st2" width="13.1" height="13.1"/>
	<rect id="XMLID_4532_" x="93.2" y="141.4" class="st2" width="12.9" height="12.9"/>
	<rect id="XMLID_763_" x="92.8" y="128.3" class="st2" width="13.1" height="13.1"/>
	<rect id="XMLID_4531_" x="93.2" y="128.5" class="st2" width="12.9" height="12.9"/>
	<rect id="XMLID_762_" x="92.8" y="115.5" class="st2" width="13.1" height="13.1"/>
	<rect id="XMLID_4530_" x="93.2" y="115.6" class="st2" width="12.9" height="12.9"/>
	<rect id="XMLID_761_" x="92.8" y="102.7" class="st3" width="13.1" height="13.1"/>
	<rect id="XMLID_4529_" x="93.2" y="102.7" class="st3" width="12.9" height="12.9"/>
	<rect id="XMLID_743_" x="80.1" y="166.9" class="st1" width="13.1" height="13.1"/>
	<rect id="XMLID_4511_" x="80.2" y="166.9" class="st1" width="12.9" height="12.9"/>
	<rect id="XMLID_742_" x="80.1" y="154.1" class="st1" width="13.1" height="13.1"/>
	<rect id="XMLID_4510_" x="80.2" y="154.3" class="st1" width="12.9" height="12.9"/>
	<rect id="XMLID_741_" x="80.1" y="141.2" class="st2" width="13.1" height="13.1"/>
	<rect id="XMLID_4509_" x="80.2" y="141.4" class="st2" width="12.9" height="12.9"/>
	<rect id="XMLID_740_" x="80.1" y="128.3" class="st2" width="13.1" height="13.1"/>
	<rect id="XMLID_4508_" x="80.2" y="128.5" class="st2" width="12.9" height="12.9"/>
	<rect id="XMLID_739_" x="80.1" y="115.5" class="st2" width="13.1" height="13.1"/>
	<rect id="XMLID_4507_" x="80.2" y="115.6" class="st2" width="12.9" height="12.9"/>
	<rect id="XMLID_738_" x="80.1" y="25.7" class="st4" width="13.1" height="13.1"/>
	<rect id="XMLID_4506_" x="80.2" y="25.7" class="st4" width="12.9" height="12.9"/>
	<rect id="XMLID_737_" x="80.1" y="12.9" class="st4" width="13.1" height="13.1"/>
	<rect id="XMLID_4505_" x="80.2" y="13.1" class="st4" width="12.9" height="12.9"/>
	<rect id="XMLID_717_" x="67.1" y="166.9" class="st1" width="13.1" height="13.1"/>
	<rect id="XMLID_4487_" x="67.5" y="166.9" class="st1" width="12.9" height="12.9"/>
	<rect id="XMLID_716_" x="67.1" y="154.1" class="st1" width="13.1" height="13.1"/>
	<rect id="XMLID_4486_" x="67.5" y="154.3" class="st1" width="12.9" height="12.9"/>
	<rect id="XMLID_715_" x="67.1" y="141.2" class="st2" width="13.1" height="13.1"/>
	<rect id="XMLID_4485_" x="67.5" y="141.4" class="st2" width="12.9" height="12.9"/>
	<rect id="XMLID_714_" x="67.1" y="128.3" class="st2" width="13.1" height="13.1"/>
	<rect id="XMLID_4484_" x="67.5" y="128.5" class="st2" width="12.9" height="12.9"/>
	<rect id="XMLID_712_" x="67.1" y="115.5" class="st2" width="13.1" height="13.1"/>
	<rect id="XMLID_4483_" x="67.5" y="115.6" class="st2" width="12.9" height="12.9"/>
	<rect id="XMLID_711_" x="67.1" y="102.7" class="st5" width="13.1" height="13.1"/>
	<rect id="XMLID_4482_" x="67.5" y="102.7" class="st5" width="12.9" height="12.9"/>
	<rect id="XMLID_710_" x="67.1" y="38.5" class="st4" width="13.1" height="13.1"/>
	<rect id="XMLID_4481_" x="67.5" y="38.6" class="st4" width="12.9" height="12.9"/>
	<rect id="XMLID_709_" x="67.1" y="25.7" class="st4" width="13.1" height="13.1"/>
	<rect id="XMLID_4480_" x="67.5" y="25.7" class="st4" width="12.9" height="12.9"/>
	<rect id="XMLID_708_" x="67.1" y="12.9" class="st6" width="13.1" height="13.1"/>
	<rect id="XMLID_4479_" x="67.5" y="13.1" class="st6" width="12.9" height="12.9"/>
	<rect id="XMLID_707_" x="67.1" class="st6" width="13.1" height="13.1"/>
	<rect id="XMLID_4478_" x="67.5" y="0.2" class="st6" width="12.9" height="12.9"/>
	<rect id="XMLID_689_" x="54.4" y="166.9" class="st1" width="13.1" height="13.1"/>
	<rect id="XMLID_4460_" x="54.5" y="166.9" class="st1" width="12.9" height="12.9"/>
	<rect id="XMLID_688_" x="54.4" y="154.1" class="st1" width="13.1" height="13.1"/>
	<rect id="XMLID_4459_" x="54.5" y="154.3" class="st1" width="12.9" height="12.9"/>
	<rect id="XMLID_687_" x="54.4" y="141.2" class="st2" width="13.1" height="13.1"/>
	<rect id="XMLID_4458_" x="54.5" y="141.4" class="st2" width="12.9" height="12.9"/>
	<rect id="XMLID_686_" x="54.4" y="128.3" class="st1" width="13.1" height="13.1"/>
	<rect id="XMLID_4457_" x="54.5" y="128.5" class="st1" width="12.9" height="12.9"/>
	<rect id="XMLID_685_" x="54.4" y="115.5" class="st2" width="13.1" height="13.1"/>
	<rect id="XMLID_4456_" x="54.5" y="115.6" class="st2" width="12.9" height="12.9"/>
	<rect id="XMLID_684_" x="54.4" y="102.7" class="st5" width="13.1" height="13.1"/>
	<rect id="XMLID_4455_" x="54.5" y="102.7" class="st5" width="12.9" height="12.9"/>
	<rect id="XMLID_683_" x="54.4" y="89.9" class="st7" width="13.1" height="13.1"/>
	<rect id="XMLID_4454_" x="54.5" y="89.9" class="st7" width="12.9" height="12.9"/>
	<rect id="XMLID_682_" x="54.4" y="77" class="st7" width="13.1" height="13.1"/>
	<rect id="XMLID_4453_" x="54.5" y="77.3" class="st7" width="12.9" height="12.9"/>
	<rect id="XMLID_681_" x="54.4" y="64.2" class="st7" width="13.1" height="13.1"/>
	<rect id="XMLID_4452_" x="54.5" y="64.4" class="st7" width="12.9" height="12.9"/>
	<rect id="XMLID_680_" x="54.4" y="51.3" class="st4" width="13.1" height="13.1"/>
	<rect id="XMLID_4451_" x="54.5" y="51.5" class="st4" width="12.9" height="12.9"/>
	<rect id="XMLID_679_" x="54.4" y="38.5" class="st4" width="13.1" height="13.1"/>
	<rect id="XMLID_4450_" x="54.5" y="38.6" class="st4" width="12.9" height="12.9"/>
	<rect id="XMLID_678_" x="54.4" y="25.7" class="st6" width="13.1" height="13.1"/>
	<rect id="XMLID_4449_" x="54.5" y="25.7" class="st6" width="12.9" height="12.9"/>
	<rect id="XMLID_677_" x="54.4" y="12.9" class="st6" width="13.1" height="13.1"/>
	<rect id="XMLID_4448_" x="54.5" y="13.1" class="st6" width="12.9" height="12.9"/>
	<rect id="XMLID_676_" x="54.4" class="st6" width="13.1" height="13.1"/>
	<rect id="XMLID_4447_" x="54.5" y="0.2" class="st6" width="12.9" height="12.9"/>
	<rect id="XMLID_658_" x="41.8" y="166.9" class="st1" width="13.1" height="13.1"/>
	<rect id="XMLID_4429_" x="41.8" y="166.9" class="st1" width="12.9" height="12.9"/>
	<rect id="XMLID_657_" x="41.8" y="154.1" class="st1" width="13.1" height="13.1"/>
	<rect id="XMLID_4428_" x="41.8" y="154.3" class="st1" width="12.9" height="12.9"/>
	<rect id="XMLID_656_" x="41.8" y="141.2" class="st2" width="13.1" height="13.1"/>
	<rect id="XMLID_4427_" x="41.8" y="141.4" class="st2" width="12.9" height="12.9"/>
	<rect id="XMLID_655_" x="41.8" y="128.3" class="st2" width="13.1" height="13.1"/>
	<rect id="XMLID_4426_" x="41.8" y="128.5" class="st2" width="12.9" height="12.9"/>
	<rect id="XMLID_654_" x="41.8" y="115.5" class="st2" width="13.1" height="13.1"/>
	<rect id="XMLID_4425_" x="41.8" y="115.6" class="st2" width="12.9" height="12.9"/>
	<rect id="XMLID_653_" x="41.8" y="102.7" class="st5" width="13.1" height="13.1"/>
	<rect id="XMLID_4424_" x="41.8" y="102.7" class="st5" width="12.9" height="12.9"/>
	<rect id="XMLID_652_" x="41.8" y="38.5" class="st4" width="13.1" height="13.1"/>
	<rect id="XMLID_4423_" x="41.8" y="38.6" class="st4" width="12.9" height="12.9"/>
	<rect id="XMLID_651_" x="41.8" y="25.7" class="st6" width="13.1" height="13.1"/>
	<rect id="XMLID_4422_" x="41.8" y="25.7" class="st6" width="12.9" height="12.9"/>
	<rect id="XMLID_650_" x="41.8" y="12.9" class="st6" width="13.1" height="13.1"/>
	<rect id="XMLID_4421_" x="41.8" y="13.1" class="st6" width="12.9" height="12.9"/>
	<rect id="XMLID_649_" x="41.8" class="st6" width="13.1" height="13.1"/>
	<rect id="XMLID_4420_" x="41.8" y="0.2" class="st6" width="12.9" height="12.9"/>
	<rect id="XMLID_631_" x="28.7" y="166.9" class="st1" width="13.1" height="13.1"/>
	<rect id="XMLID_4402_" x="29" y="166.9" class="st1" width="12.9" height="12.9"/>
	<rect id="XMLID_630_" x="28.7" y="154.1" class="st1" width="13.1" height="13.1"/>
	<rect id="XMLID_4401_" x="29" y="154.3" class="st1" width="12.9" height="12.9"/>
	<rect id="XMLID_629_" x="28.7" y="141.2" class="st2" width="13.1" height="13.1"/>
	<rect id="XMLID_4400_" x="29" y="141.4" class="st2" width="12.9" height="12.9"/>
	<rect id="XMLID_628_" x="28.7" y="128.3" class="st1" width="13.1" height="13.1"/>
	<rect id="XMLID_4399_" x="29" y="128.5" class="st1" width="12.9" height="12.9"/>
	<rect id="XMLID_627_" x="28.7" y="115.5" class="st2" width="13.1" height="13.1"/>
	<rect id="XMLID_4398_" x="29" y="115.6" class="st2" width="12.9" height="12.9"/>
	<rect id="XMLID_626_" x="28.7" y="25.7" class="st6" width="13.1" height="13.1"/>
	<rect id="XMLID_4397_" x="29" y="25.7" class="st6" width="12.9" height="12.9"/>
	<rect id="XMLID_625_" x="28.7" y="12.9" class="st6" width="13.1" height="13.1"/>
	<rect id="XMLID_4396_" x="29" y="13.1" class="st6" width="12.9" height="12.9"/>
	<rect id="XMLID_607_" x="15.8" y="166.9" class="st1" width="13.1" height="13.1"/>
	<rect id="XMLID_4378_" x="16.2" y="166.9" class="st1" width="12.9" height="12.9"/>
	<rect id="XMLID_606_" x="15.8" y="154.1" class="st1" width="13.1" height="13.1"/>
	<rect id="XMLID_4377_" x="16.2" y="154.3" class="st1" width="12.9" height="12.9"/>
	<rect id="XMLID_605_" x="15.8" y="141.2" class="st2" width="13.1" height="13.1"/>
	<rect id="XMLID_4376_" x="16.2" y="141.4" class="st2" width="12.9" height="12.9"/>
	<rect id="XMLID_604_" x="15.8" y="128.3" class="st1" width="13.1" height="13.1"/>
	<rect id="XMLID_4375_" x="16.2" y="128.5" class="st1" width="12.9" height="12.9"/>
	<rect id="XMLID_603_" x="15.8" y="115.5" class="st2" width="13.1" height="13.1"/>
	<rect id="XMLID_4374_" x="16.2" y="115.6" class="st2" width="12.9" height="12.9"/>
	<rect id="XMLID_585_" x="3" y="154.1" class="st1" width="13.1" height="13.1"/>
	<rect id="XMLID_4356_" x="3.2" y="154.3" class="st1" width="12.9" height="12.9"/>
	<rect id="XMLID_584_" x="3" y="141.2" class="st2" width="13.1" height="13.1"/>
	<rect id="XMLID_4355_" x="3.2" y="141.4" class="st2" width="12.9" height="12.9"/>
	<rect id="XMLID_583_" x="3" y="128.3" class="st2" width="13.1" height="13.1"/>
	<rect id="XMLID_4354_" x="3.2" y="128.5" class="st2" width="12.9" height="12.9"/>
	<rect id="XMLID_582_" x="3" y="115.5" class="st2" width="13.1" height="13.1"/>
	<rect id="XMLID_4353_" x="3.2" y="115.6" class="st2" width="12.9" height="12.9"/>
	<rect id="XMLID_564_" x="-9.9" y="141.2" class="st1" width="13.1" height="13.1"/>
	<rect id="XMLID_4335_" x="-9.7" y="141.4" class="st1" width="12.9" height="12.9"/>
	<rect id="XMLID_563_" x="-9.9" y="128.3" class="st2" width="13.1" height="13.1"/>
	<rect id="XMLID_4334_" x="-9.7" y="128.5" class="st2" width="12.9" height="12.9"/>
</g>
<rect x="-70" class="st8" width="50.1" height="180"/>
<g>
	<path class="st9" d="M-39.9,26.1v-8h-11.9v4h-8v-4h4v-4h20v4h4v8h-4v4h-12v4h-4v4h20v4h-28v-8h4v-4h4v-4H-39.9z"/>
</g>
</svg>
