<?xml version="1.0" encoding="utf-8"?>
<!-- Generator: Adobe Illustrator 19.0.0, SVG Export Plug-In . SVG Version: 6.00 Build 0)  -->
<svg version="1.1" id="Layer_1" xmlns="http://www.w3.org/2000/svg" xmlns:xlink="http://www.w3.org/1999/xlink" x="0px" y="0px"
	 viewBox="0 21 120 80" style="enable-background:new 0 21 120 80;" xml:space="preserve">
<style type="text/css">
	.st0{fill:#538442;}
	.st1{fill:#3A7646;}
	.st2{fill:#6AAF4F;}
	.st3{fill:#5A9448;}
	.st4{fill:#41824B;}
	.st5{fill:#98C94F;}
</style>
<g id="XMLID_24_">
	<g id="XMLID_37_">
		<rect id="XMLID_22_" x="17.5" y="43.3" class="st0" width="100.7" height="54.5"/>
		<rect id="XMLID_21_" x="54.3" y="58.6" class="st1" width="27.2" height="18.7"/>
		<rect id="XMLID_20_" x="62.8" y="51.4" class="st1" width="10.1" height="33"/>
		<rect id="XMLID_19_" x="17.5" y="43.3" class="st2" width="100.7" height="8.1"/>
		<rect id="XMLID_18_" x="17.5" y="43.3" class="st2" width="8.1" height="49.2"/>
		<rect id="XMLID_17_" x="110.1" y="43.3" class="st2" width="8.1" height="49.2"/>
		<rect id="XMLID_16_" x="17.5" y="84.4" class="st2" width="100.7" height="8.1"/>
		<rect id="XMLID_15_" x="25.7" y="51.4" class="st2" width="8.1" height="8.1"/>
		<rect id="XMLID_14_" x="25.7" y="76.2" class="st2" width="8.1" height="8.1"/>
		<rect id="XMLID_13_" x="102" y="51.4" class="st2" width="8.1" height="8.1"/>
		<rect id="XMLID_12_" x="102" y="76.2" class="st2" width="8.1" height="8.1"/>
	</g>
	<g id="XMLID_25_">
		<rect id="XMLID_11_" x="1.4" y="22.3" class="st3" width="100.7" height="54.5"/>
		<rect id="XMLID_10_" x="38.1" y="37.6" class="st4" width="27.2" height="18.7"/>
		<rect id="XMLID_9_" x="46.7" y="30.4" class="st4" width="10.1" height="33"/>
		<rect id="XMLID_8_" x="1.4" y="22.3" class="st5" width="100.7" height="8.1"/>
		<rect id="XMLID_7_" x="1.4" y="22.3" class="st5" width="8.1" height="49.2"/>
		<rect id="XMLID_6_" x="94" y="22.3" class="st5" width="8.1" height="49.2"/>
		<rect id="XMLID_5_" x="1.4" y="63.4" class="st5" width="100.7" height="8.1"/>
		<rect id="XMLID_4_" x="9.5" y="30.4" class="st5" width="8.1" height="8.1"/>
		<rect id="XMLID_3_" x="9.5" y="55.2" class="st5" width="8.1" height="8.1"/>
		<rect id="XMLID_2_" x="85.8" y="30.4" class="st5" width="8.1" height="8.1"/>
		<rect id="XMLID_1_" x="85.8" y="55.2" class="st5" width="8.1" height="8.1"/>
	</g>
</g>
</svg>
