<?xml version="1.0" encoding="utf-8"?>
<!-- Generator: Adobe Illustrator 19.0.0, SVG Export Plug-In . SVG Version: 6.00 Build 0)  -->
<svg version="1.1" id="Layer_1" xmlns="http://www.w3.org/2000/svg" xmlns:xlink="http://www.w3.org/1999/xlink" x="0px" y="0px"
	 viewBox="-53 0 221.3 180" style="enable-background:new -53 0 221.3 180;" xml:space="preserve">
<style type="text/css">
	.st0{fill:#754C24;}
	.st1{fill:#FFD500;}
	.st2{fill:#F0EDA0;}
	.st3{fill:#E36159;}
	.st4{fill:#FFFFFF;}
</style>
<polygon class="st0" points="149.9,166.6 149.9,141.8 26.8,141.8 26.8,166.6 8,166.6 8,178.7 168,178.7 168,166.6 "/>
<path class="st1" d="M143,0.8v5.6v1.3v5.6h-6.2v5.6h-6.3V0h-85v18.9H39v-5.6h-6.2V7.7V4.3V0.9H8v6.9l0,0v42.3h6.3v6.2v6.4h6.2v5.6
	h12.5v6.1h12.8v5.6h5.6v6.3h6.1v6.3H70v6.1h5.9v18.3H70v7.1h-6.3v5.8H51.1v5.8h-5.6v6.1h85v-6.1H125v-5.8h-12.3V124h-6.1v-7.1h-5.9
	V98.6h5.9v-6.1h12.6v-6.3h6.1v-6.3h5.6v-5.6h12.5v-6.1h12.5v-5.6h7.2v-6.4h-0.5V50h5.8V7.7V3.3V0.8H143z M39.1,68.3v-5.6H26.6v-6.4
	h-6.3V43.7h-6.2v-36h12.5v7.5h0.1v3.7h6.1v7h12.8v42.4H39.1z M161.7,43.7H156v12.6h-6.8v6.4h-12.3v5.6h-6.2V25.9h12.5v-7h6.2v-3.7
	v-1.9V7.7h12.5L161.7,43.7L161.7,43.7z"/>
<rect x="44.8" y="148.1" class="st2" width="86.3" height="12.1"/>
<polygon class="st2" points="94.4,61.7 94.4,13 88.2,13 88.2,18.9 82,18.9 82,25.4 76.2,25.4 76.2,31.6 69.6,31.6 69.6,37.6 
	76.2,37.6 78.5,37.6 82,37.6 82,61.7 69.9,61.7 69.9,73.9 106.6,73.9 106.6,61.7 "/>
<rect x="-53" class="st3" width="50.1" height="180"/>
<g>
	<path class="st4" d="M-34.9,26.1h11.9v-8h-11.9v4h-8v-4h4v-4h20v4h4v8h-4v4h4v8h-4v4h-20v-4h-4v-4h8v4h11.9v-8h-11.9V26.1z"/>
</g>
</svg>
